#!OML:ASF H:\ManfredETheater\Project 1\Capture day 1\Session 1\subject.ASF
:FULLY-SPECIFIED
:DEGREES
172
root -8.12661 15.5454 24.6192 -152.677 1.53237 170.076
lowerback 12.8482 -1.52862 0.316989
upperback -3.33831 -1.72624 3.81122
thorax -10.7601 -0.741232 4.35585
lowerneck -16.556 2.69547 0.451869
upperneck -0.204258 4.664 -9.27129
head 2.82972 2.21929 -2.5646
rclavicle 1.90833e-014 -1.90833e-014
rhumerus -55.7668 5.27528 -71.9452
rradius 65.5423
rwrist -1.38652
rhand -36.1871 -0.780097
rfingers 7.12502
rthumb -9.29037 -30.5554
lclavicle 1.90833e-014 -1.90833e-014
lhumerus -25.7723 -20.3791 97.1253
lradius 90.4103
lwrist 0.365307
lhand -25.272 -14.9006
lfingers 7.12502
lthumb 1.24886 15.0755
rfemur -66.5832 -13.1623 19.1107
rtibia 91.3899
rfoot -20.3825 -3.56006
rtoes -40.1546
lfemur -13.6878 -3.52578 -30.8845
ltibia 42.6233
lfoot -17.344 -18.6567
ltoes 2.28632
173
root -8.12318 15.5836 24.2347 -152.806 2.36747 169.585
lowerback 13.0137 -1.43444 0.0181821
upperback -3.26436 -1.65493 3.56499
thorax -10.7777 -0.689531 4.2432
lowerneck -16.4669 2.7549 0.262439
upperneck 0.0403357 4.78584 -9.33518
head 2.89478 2.26339 -2.54366
rclavicle -1.11319e-014 2.70347e-014
rhumerus -56.2503 6.13907 -72.0316
rradius 65.3685
rwrist -0.915927
rhand -35.9021 -0.299704
rfingers 7.12502
rthumb -9.01529 -30.0871
lclavicle -1.11319e-014 2.70347e-014
lhumerus -25.4868 -20.6348 97.1602
lradius 91.1097
lwrist -0.146098
lhand -25.2595 -15.4902
lfingers 7.12502
lthumb 1.2609 14.4858
rfemur -69.1695 -12.5019 19.7087
rtibia 89.9833
rfoot -20.9513 -2.55782
rtoes -40.5909
lfemur -11.801 -3.68863 -31.5676
ltibia 40.5311
lfoot -11.9524 -19.4521
ltoes 2.6761
174
root -8.11728 15.6496 23.8341 -153.025 3.30521 169.052
lowerback 13.2831 -1.41355 -0.377131
upperback -3.14208 -1.54195 3.28261
thorax -10.8034 -0.548553 4.12681
lowerneck -16.3926 2.80417 0.0598037
upperneck 0.256721 4.8981 -9.39073
head 2.95231 2.30482 -2.5188
rclavicle -3.10104e-014 2.22639e-014
rhumerus -56.4894 6.873 -72.186
rradius 65.0929
rwrist -0.460419
rhand -35.5389 0.139095
rfingers 7.12502
rthumb -8.66488 -29.6631
lclavicle -3.10104e-014 2.22639e-014
lhumerus -25.3379 -20.7489 97.2018
lradius 91.6304
lwrist -0.825219
lhand -25.2794 -15.871
lfingers 7.12502
lthumb 1.24174 14.1051
rfemur -71.1847 -11.851 20.3577
rtibia 88.1389
rfoot -21.4996 -1.53062
rtoes -41.0139
lfemur -9.99561 -3.71421 -32.2931
ltibia 38.4764
lfoot -5.58366 -20.01
ltoes 3.05854
175
root -8.10963 15.7152 23.4303 -153.306 4.32191 168.479
lowerback 13.6133 -1.25052 -0.80575
upperback -2.98151 -1.45188 2.95629
thorax -10.8215 -0.499495 4.00218
lowerneck -16.3741 2.84866 -0.159901
upperneck 0.47064 5.00975 -9.42028
head 3.01616 2.34631 -2.48273
rclavicle 1.35174e-014 -1.59028e-015
rhumerus -56.4575 7.4594 -72.3908
rradius 64.7233
rwrist -0.0385721
rhand -35.1254 0.508134
rfingers 7.12502
rthumb -8.26583 -29.3102
lclavicle 1.35174e-014 -1.59028e-015
lhumerus -25.2929 -20.7379 97.2218
lradius 91.9717
lwrist -1.57753
lhand -25.3259 -16.051
lfingers 7.12502
lthumb 1.19684 13.9254
rfemur -72.8563 -11.2371 21.1125
rtibia 86.0871
rfoot -21.9719 -0.612907
rtoes -41.5491
lfemur -8.39446 -3.60633 -33.0482
ltibia 36.6054
lfoot 1.32283 -20.1285
ltoes 3.22489
176
root -8.10023 15.7773 23.0255 -153.633 5.37483 167.866
lowerback 14.003 -1.08576 -1.28319
upperback -2.78947 -1.37252 2.59867
thorax -10.8386 -0.453116 3.87394
lowerneck -16.3804 2.88526 -0.389234
upperneck 0.658716 5.11338 -9.434
head 3.07459 2.38557 -2.44079
rclavicle 1.82882e-014 7.63333e-014
rhumerus -56.1672 7.90692 -72.6281
rradius 64.2811
rwrist 0.324204
rhand -34.6766 0.776931
rfingers 7.12502
rthumb -7.8326 -29.058
lclavicle 1.82882e-014 7.63333e-014
lhumerus -25.3494 -20.6117 97.208
lradius 92.1446
lwrist -2.26934
lhand -25.3798 -16.0714
lfingers 7.12502
lthumb 1.14471 13.9053
rfemur -74.2116 -10.7093 22.0106
rtibia 83.883
rfoot -22.2861 0.0773495
rtoes -42.1502
lfemur -6.9933 -3.38604 -33.8092
ltibia 34.9054
lfoot 8.36055 -19.8598
ltoes 3.75788
177
root -8.08944 15.8338 22.622 -153.966 6.4126 167.208
lowerback 14.3967 -0.93751 -1.78808
upperback -2.56169 -1.32344 2.21206
thorax -10.8161 -0.420485 3.73455
lowerneck -16.4449 2.91248 -0.601349
upperneck 0.822814 5.20595 -9.45335
head 3.13468 2.42001 -2.40366
rclavicle 3.18055e-014 -9.54166e-015
rhumerus -55.5989 8.20561 -72.8835
rradius 63.7869
rwrist 0.593883
rhand -34.205 0.934276
rfingers 7.12502
rthumb -7.37748 -28.9171
lclavicle 3.18055e-014 -9.54166e-015
lhumerus -25.4449 -20.393 97.1221
lradius 92.1543
lwrist -2.80595
lhand -25.3929 -15.9862
lfingers 7.12502
lthumb 1.13212 13.9905
rfemur -75.3175 -10.3262 23.083
rtibia 81.6377
rfoot -22.4466 0.442023
rtoes -42.7475
lfemur -5.90706 -3.10989 -34.5614
ltibia 33.6198
lfoot 14.8003 -19.5045
ltoes 4.81157
178
root -8.07703 15.8841 22.2214 -154.315 7.38743 166.519
lowerback 14.8232 -0.818319 -2.29323
upperback -2.30289 -1.31342 1.80738
thorax -10.7756 -0.405864 3.58413
lowerneck -16.5534 2.92742 -0.79421
upperneck 0.953051 5.28277 -9.48454
head 3.19133 2.44795 -2.37413
rclavicle -2.38542e-014 -2.54444e-014
rhumerus -54.7852 8.36789 -73.1411
rradius 63.2641
rwrist 0.773877
rhand -33.7427 1.0395
rfingers 7.12502
rthumb -6.93122 -28.827
lclavicle -2.38542e-014 -2.54444e-014
lhumerus -25.5568 -20.0895 96.9523
lradius 92.018
lwrist -3.14766
lhand -25.3454 -15.8575
lfingers 7.12502
lthumb 1.17801 14.119
rfemur -76.1676 -10.1119 24.3412
rtibia 79.4126
rfoot -22.4536 0.429192
rtoes -43.3237
lfemur -5.13717 -2.82311 -35.2713
ltibia 32.897
lfoot 19.9863 -19.2675
ltoes 6.32096
